{"glyphs":{"\u000b":{"ha":732,"x_min":0,"x_max":0,"o":"m 69 972 l 69 0 l 663 0 l 663 972 z m 108 944 l 624 944 l 365 515 z m 349 486 l 99 68 l 99 903 z m 367 457 l 624 29 l 110 29 z m 383 486 l 635 906 l 635 65 z "},"\f":{"ha":732,"x_min":0,"x_max":0,"o":"m 69 972 l 69 0 l 663 0 l 663 972 z m 108 944 l 624 944 l 365 515 z m 349 486 l 99 68 l 99 903 z m 367 457 l 624 29 l 110 29 z m 383 486 l 635 906 l 635 65 z "},"Æ":{"ha":732,"x_min":0,"x_max":0,"o":"m 69 972 l 69 0 l 663 0 l 663 972 z m 108 944 l 624 944 l 365 515 z m 349 486 l 99 68 l 99 903 z m 367 457 l 624 29 l 110 29 z m 383 486 l 635 906 l 635 65 z "},"Ð":{"ha":732,"x_min":0,"x_max":0,"o":"m 69 972 l 69 0 l 663 0 l 663 972 z m 108 944 l 624 944 l 365 515 z m 349 486 l 99 68 l 99 903 z m 367 457 l 624 29 l 110 29 z m 383 486 l 635 906 l 635 65 z "},"×":{"ha":732,"x_min":0,"x_max":0,"o":"m 69 972 l 69 0 l 663 0 l 663 972 z m 108 944 l 624 944 l 365 515 z m 349 486 l 99 68 l 99 903 z m 367 457 l 624 29 l 110 29 z m 383 486 l 635 906 l 635 65 z "},"Þ":{"ha":732,"x_min":0,"x_max":0,"o":"m 69 972 l 69 0 l 663 0 l 663 972 z m 108 944 l 624 944 l 365 515 z m 349 486 l 99 68 l 99 903 z m 367 457 l 624 29 l 110 29 z m 383 486 l 635 906 l 635 65 z "},"ß":{"ha":732,"x_min":0,"x_max":0,"o":"m 69 972 l 69 0 l 663 0 l 663 972 z m 108 944 l 624 944 l 365 515 z m 349 486 l 99 68 l 99 903 z m 367 457 l 624 29 l 110 29 z m 383 486 l 635 906 l 635 65 z "},"æ":{"ha":732,"x_min":0,"x_max":0,"o":"m 69 972 l 69 0 l 663 0 l 663 972 z m 108 944 l 624 944 l 365 515 z m 349 486 l 99 68 l 99 903 z m 367 457 l 624 29 l 110 29 z m 383 486 l 635 906 l 635 65 z "},"ð":{"ha":732,"x_min":0,"x_max":0,"o":"m 69 972 l 69 0 l 663 0 l 663 972 z m 108 944 l 624 944 l 365 515 z m 349 486 l 99 68 l 99 903 z m 367 457 l 624 29 l 110 29 z m 383 486 l 635 906 l 635 65 z "},"÷":{"ha":732,"x_min":0,"x_max":0,"o":"m 69 972 l 69 0 l 663 0 l 663 972 z m 108 944 l 624 944 l 365 515 z m 349 486 l 99 68 l 99 903 z m 367 457 l 624 29 l 110 29 z m 383 486 l 635 906 l 635 65 z "},"þ":{"ha":732,"x_min":0,"x_max":0,"o":"m 69 972 l 69 0 l 663 0 l 663 972 z m 108 944 l 624 944 l 365 515 z m 349 486 l 99 68 l 99 903 z m 367 457 l 624 29 l 110 29 z m 383 486 l 635 906 l 635 65 z "},"\u0000":{"ha":0,"x_min":0,"x_max":0,"o":""},"\n":{"ha":0,"x_min":0,"x_max":0,"o":""},"\r":{"ha":0,"x_min":0,"x_max":0,"o":""}," ":{"ha":440,"x_min":0,"x_max":0,"o":""},"A":{"ha":983,"x_min":0,"x_max":0,"o":"m 887 0 l 966 0 l 491 972 l 452 891 l 491 810 z m 17 0 l 96 0 l 280 377 l 609 377 l 574 448 l 315 448 l 452 729 l 412 810 z "},"a":{"ha":983,"x_min":0,"x_max":0,"o":"m 887 0 l 966 0 l 491 972 l 452 891 l 491 810 z m 17 0 l 96 0 l 280 377 l 609 377 l 574 448 l 315 448 l 452 729 l 412 810 z "},"À":{"ha":983,"x_min":0,"x_max":0,"o":"m 887 0 l 966 0 l 491 972 l 452 891 l 491 810 z m 17 0 l 96 0 l 280 377 l 609 377 l 574 448 l 315 448 l 452 729 l 412 810 z "},"Á":{"ha":983,"x_min":0,"x_max":0,"o":"m 887 0 l 966 0 l 491 972 l 452 891 l 491 810 z m 17 0 l 96 0 l 280 377 l 609 377 l 574 448 l 315 448 l 452 729 l 412 810 z "},"Â":{"ha":983,"x_min":0,"x_max":0,"o":"m 887 0 l 966 0 l 491 972 l 452 891 l 491 810 z m 17 0 l 96 0 l 280 377 l 609 377 l 574 448 l 315 448 l 452 729 l 412 810 z "},"Ã":{"ha":983,"x_min":0,"x_max":0,"o":"m 887 0 l 966 0 l 491 972 l 452 891 l 491 810 z m 17 0 l 96 0 l 280 377 l 609 377 l 574 448 l 315 448 l 452 729 l 412 810 z "},"Ä":{"ha":983,"x_min":0,"x_max":0,"o":"m 887 0 l 966 0 l 491 972 l 452 891 l 491 810 z m 17 0 l 96 0 l 280 377 l 609 377 l 574 448 l 315 448 l 452 729 l 412 810 z "},"Å":{"ha":983,"x_min":0,"x_max":0,"o":"m 887 0 l 966 0 l 491 972 l 452 891 l 491 810 z m 17 0 l 96 0 l 280 377 l 609 377 l 574 448 l 315 448 l 452 729 l 412 810 z "},"à":{"ha":983,"x_min":0,"x_max":0,"o":"m 887 0 l 966 0 l 491 972 l 452 891 l 491 810 z m 17 0 l 96 0 l 280 377 l 609 377 l 574 448 l 315 448 l 452 729 l 412 810 z "},"á":{"ha":983,"x_min":0,"x_max":0,"o":"m 887 0 l 966 0 l 491 972 l 452 891 l 491 810 z m 17 0 l 96 0 l 280 377 l 609 377 l 574 448 l 315 448 l 452 729 l 412 810 z "},"â":{"ha":983,"x_min":0,"x_max":0,"o":"m 887 0 l 966 0 l 491 972 l 452 891 l 491 810 z m 17 0 l 96 0 l 280 377 l 609 377 l 574 448 l 315 448 l 452 729 l 412 810 z "},"ã":{"ha":983,"x_min":0,"x_max":0,"o":"m 887 0 l 966 0 l 491 972 l 452 891 l 491 810 z m 17 0 l 96 0 l 280 377 l 609 377 l 574 448 l 315 448 l 452 729 l 412 810 z "},"ä":{"ha":983,"x_min":0,"x_max":0,"o":"m 887 0 l 966 0 l 491 972 l 452 891 l 491 810 z m 17 0 l 96 0 l 280 377 l 609 377 l 574 448 l 315 448 l 452 729 l 412 810 z "},"å":{"ha":983,"x_min":0,"x_max":0,"o":"m 887 0 l 966 0 l 491 972 l 452 891 l 491 810 z m 17 0 l 96 0 l 280 377 l 609 377 l 574 448 l 315 448 l 452 729 l 412 810 z "},"B":{"ha":779,"x_min":0,"x_max":0,"o":"m 141 636 l 69 565 l 69 93 l 141 164 z m 598 485 b 649 535 618 498 635 516 b 699 709 683 587 701 648 b 492 972 699 838 628 968 l 421 901 l 486 901 b 628 709 584 901 628 802 b 591 576 629 662 616 616 b 486 522 567 541 528 521 l 321 522 l 250 451 l 484 451 b 626 259 581 451 626 351 b 588 126 627 212 614 166 b 484 72 565 91 526 71 l 141 72 l 69 0 l 484 0 b 646 85 549 -1 610 31 b 697 259 680 137 698 197 b 598 485 697 347 663 436 z "},"b":{"ha":779,"x_min":0,"x_max":0,"o":"m 141 636 l 69 565 l 69 93 l 141 164 z m 598 485 b 649 535 618 498 635 516 b 699 709 683 587 701 648 b 492 972 699 838 628 968 l 421 901 l 486 901 b 628 709 584 901 628 802 b 591 576 629 662 616 616 b 486 522 567 541 528 521 l 321 522 l 250 451 l 484 451 b 626 259 581 451 626 351 b 588 126 627 212 614 166 b 484 72 565 91 526 71 l 141 72 l 69 0 l 484 0 b 646 85 549 -1 610 31 b 697 259 680 137 698 197 b 598 485 697 347 663 436 z "},"C":{"ha":971,"x_min":0,"x_max":0,"o":"m 890 261 b 317 136 766 69 509 13 b 191 710 124 260 68 517 b 765 836 315 903 571 959 l 801 897 b 132 748 575 1040 276 973 b 278 78 -12 522 53 223 b 949 221 503 -67 803 -3 z "},"c":{"ha":971,"x_min":0,"x_max":0,"o":"m 890 261 b 317 136 766 69 509 13 b 191 710 124 260 68 517 b 765 836 315 903 571 959 l 801 897 b 132 748 575 1040 276 973 b 278 78 -12 522 53 223 b 949 221 503 -67 803 -3 z "},"Ç":{"ha":971,"x_min":0,"x_max":0,"o":"m 890 261 b 317 136 766 69 509 13 b 191 710 124 260 68 517 b 765 836 315 903 571 959 l 801 897 b 132 748 575 1040 276 973 b 278 78 -12 522 53 223 b 949 221 503 -67 803 -3 z "},"ç":{"ha":971,"x_min":0,"x_max":0,"o":"m 890 261 b 317 136 766 69 509 13 b 191 710 124 260 68 517 b 765 836 315 903 571 959 l 801 897 b 132 748 575 1040 276 973 b 278 78 -12 522 53 223 b 949 221 503 -67 803 -3 z "},"D":{"ha":875,"x_min":0,"x_max":0,"o":"m 134 972 l 134 972 l 63 901 l 63 486 l 134 557 l 134 901 l 313 901 l 321 901 b 332 901 325 901 328 901 b 746 486 561 901 746 715 b 332 71 746 257 561 71 l 205 71 l 134 0 l 332 0 b 818 486 600 0 818 218 b 347 971 820 749 611 966 z "},"d":{"ha":875,"x_min":0,"x_max":0,"o":"m 134 972 l 134 972 l 63 901 l 63 486 l 134 557 l 134 901 l 313 901 l 321 901 b 332 901 325 901 328 901 b 746 486 561 901 746 715 b 332 71 746 257 561 71 l 205 71 l 134 0 l 332 0 b 818 486 600 0 818 218 b 347 971 820 749 611 966 z "},"E":{"ha":700,"x_min":0,"x_max":0,"o":"m 171 901 l 100 972 l 100 71 l 171 0 l 657 0 l 657 71 l 171 71 z m 357 972 l 428 901 l 657 901 l 657 972 z m 537 521 l 526 521 l 526 522 l 237 522 l 237 450 l 608 450 z "},"e":{"ha":700,"x_min":0,"x_max":0,"o":"m 171 901 l 100 972 l 100 71 l 171 0 l 657 0 l 657 71 l 171 71 z m 357 972 l 428 901 l 657 901 l 657 972 z m 537 521 l 526 521 l 526 522 l 237 522 l 237 450 l 608 450 z "},"È":{"ha":700,"x_min":0,"x_max":0,"o":"m 171 901 l 100 972 l 100 71 l 171 0 l 657 0 l 657 71 l 171 71 z m 357 972 l 428 901 l 657 901 l 657 972 z m 537 521 l 526 521 l 526 522 l 237 522 l 237 450 l 608 450 z "},"É":{"ha":700,"x_min":0,"x_max":0,"o":"m 171 901 l 100 972 l 100 71 l 171 0 l 657 0 l 657 71 l 171 71 z m 357 972 l 428 901 l 657 901 l 657 972 z m 537 521 l 526 521 l 526 522 l 237 522 l 237 450 l 608 450 z "},"Ê":{"ha":700,"x_min":0,"x_max":0,"o":"m 171 901 l 100 972 l 100 71 l 171 0 l 657 0 l 657 71 l 171 71 z m 357 972 l 428 901 l 657 901 l 657 972 z m 537 521 l 526 521 l 526 522 l 237 522 l 237 450 l 608 450 z "},"Ë":{"ha":700,"x_min":0,"x_max":0,"o":"m 171 901 l 100 972 l 100 71 l 171 0 l 657 0 l 657 71 l 171 71 z m 357 972 l 428 901 l 657 901 l 657 972 z m 537 521 l 526 521 l 526 522 l 237 522 l 237 450 l 608 450 z "},"è":{"ha":700,"x_min":0,"x_max":0,"o":"m 171 901 l 100 972 l 100 71 l 171 0 l 657 0 l 657 71 l 171 71 z m 357 972 l 428 901 l 657 901 l 657 972 z m 537 521 l 526 521 l 526 522 l 237 522 l 237 450 l 608 450 z "},"é":{"ha":700,"x_min":0,"x_max":0,"o":"m 171 901 l 100 972 l 100 71 l 171 0 l 657 0 l 657 71 l 171 71 z m 357 972 l 428 901 l 657 901 l 657 972 z m 537 521 l 526 521 l 526 522 l 237 522 l 237 450 l 608 450 z "},"ê":{"ha":700,"x_min":0,"x_max":0,"o":"m 171 901 l 100 972 l 100 71 l 171 0 l 657 0 l 657 71 l 171 71 z m 357 972 l 428 901 l 657 901 l 657 972 z m 537 521 l 526 521 l 526 522 l 237 522 l 237 450 l 608 450 z "},"ë":{"ha":700,"x_min":0,"x_max":0,"o":"m 171 901 l 100 972 l 100 71 l 171 0 l 657 0 l 657 71 l 171 71 z m 357 972 l 428 901 l 657 901 l 657 972 z m 537 521 l 526 521 l 526 522 l 237 522 l 237 450 l 608 450 z "},"F":{"ha":678,"x_min":0,"x_max":0,"o":"m 67 972 l 138 901 l 624 901 l 624 972 z m 209 487 l 624 487 l 624 558 l 138 558 z m 67 0 l 138 0 l 138 485 l 67 556 z "},"f":{"ha":678,"x_min":0,"x_max":0,"o":"m 67 972 l 138 901 l 624 901 l 624 972 z m 209 487 l 624 487 l 624 558 l 138 558 z m 67 0 l 138 0 l 138 485 l 67 556 z "},"G":{"ha":1063,"x_min":0,"x_max":0,"o":"m 462 451 l 877 451 l 948 522 l 462 522 z m 1027 485 l 948 406 b 887 257 937 353 917 302 b 875 240 883 251 879 246 l 875 240 b 761 134 844 198 805 162 b 735 119 752 129 744 124 b 725 114 732 117 728 116 b 694 100 714 109 704 104 b 686 97 691 99 688 98 b 657 88 676 93 667 90 b 650 85 655 87 652 86 b 616 78 639 82 627 80 b 608 76 613 77 611 77 b 576 73 597 75 587 73 b 571 72 575 73 573 72 b 537 71 560 71 548 71 b 516 72 530 71 523 72 b 495 74 509 73 502 73 b 479 76 490 74 484 75 b 455 80 471 77 463 79 b 440 84 450 81 445 83 b 416 90 432 86 424 88 b 388 101 407 93 398 97 b 380 104 386 102 383 103 b 160 324 281 146 202 225 b 159 325 159 324 159 325 b 146 361 154 337 150 349 b 145 364 146 362 145 363 b 136 400 141 375 138 388 b 135 404 135 401 135 402 b 129 441 132 416 130 428 b 129 445 129 442 129 443 b 127 483 127 457 127 470 l 127 487 b 129 524 127 499 127 512 b 129 529 129 526 129 528 b 134 564 130 541 132 552 b 135 570 135 566 135 568 b 144 606 138 582 141 594 b 145 610 145 607 145 608 b 307 828 173 698 230 775 b 311 830 308 829 309 830 b 377 867 331 845 354 857 b 386 870 380 868 383 869 b 410 879 394 874 402 876 b 423 884 414 881 419 882 b 444 889 430 886 437 887 b 477 895 455 892 466 894 b 484 897 479 896 482 896 b 542 902 503 899 522 901 b 764 836 621 902 698 879 l 801 896 b 473 967 704 959 587 984 b 466 965 471 966 468 966 b 426 958 452 963 439 961 b 403 952 418 956 410 954 b 387 946 397 950 392 948 b 359 936 377 943 368 940 b 348 932 356 935 352 933 b 278 894 324 921 300 909 b 271 890 276 893 274 891 b 266 886 269 888 268 887 b 78 631 176 824 110 735 b 75 620 77 628 76 624 b 66 585 71 609 68 597 b 64 573 65 581 64 577 b 58 537 62 561 60 549 b 58 527 58 534 58 531 b 56 488 56 514 56 501 l 56 486 b 56 480 56 484 56 482 b 58 439 56 466 57 452 b 59 431 58 436 59 433 b 65 390 60 417 62 404 b 67 383 66 388 66 386 b 77 344 70 370 73 357 b 79 337 78 341 78 340 b 93 298 83 324 88 311 b 95 294 94 297 95 295 b 114 255 101 281 107 268 b 115 253 114 254 115 254 b 133 223 121 243 126 233 b 352 39 185 141 262 76 b 370 32 358 36 364 34 b 395 23 378 29 386 25 b 426 14 405 19 415 17 b 440 11 431 13 435 12 b 470 6 450 9 460 7 b 487 3 476 5 481 4 b 513 1 496 2 504 2 b 536 0 521 1 528 0 b 542 0 538 0 540 0 b 577 1 554 0 565 0 b 582 2 579 1 580 2 b 620 6 595 3 607 4 b 628 8 623 7 626 7 b 669 17 642 10 656 13 b 677 19 672 18 674 19 b 711 31 688 23 700 26 b 720 34 714 32 717 33 b 756 50 732 39 744 44 b 768 56 760 52 764 54 b 801 75 779 62 790 68 b 805 78 802 76 804 77 b 931 196 854 109 897 149 l 932 197 b 946 216 937 203 941 210 b 949 221 947 218 948 219 b 1027 485 1000 299 1028 391 z "},"g":{"ha":1063,"x_min":0,"x_max":0,"o":"m 462 451 l 877 451 l 948 522 l 462 522 z m 1027 485 l 948 406 b 887 257 937 353 917 302 b 875 240 883 251 879 246 l 875 240 b 761 134 844 198 805 162 b 735 119 752 129 744 124 b 725 114 732 117 728 116 b 694 100 714 109 704 104 b 686 97 691 99 688 98 b 657 88 676 93 667 90 b 650 85 655 87 652 86 b 616 78 639 82 627 80 b 608 76 613 77 611 77 b 576 73 597 75 587 73 b 571 72 575 73 573 72 b 537 71 560 71 548 71 b 516 72 530 71 523 72 b 495 74 509 73 502 73 b 479 76 490 74 484 75 b 455 80 471 77 463 79 b 440 84 450 81 445 83 b 416 90 432 86 424 88 b 388 101 407 93 398 97 b 380 104 386 102 383 103 b 160 324 281 146 202 225 b 159 325 159 324 159 325 b 146 361 154 337 150 349 b 145 364 146 362 145 363 b 136 400 141 375 138 388 b 135 404 135 401 135 402 b 129 441 132 416 130 428 b 129 445 129 442 129 443 b 127 483 127 457 127 470 l 127 487 b 129 524 127 499 127 512 b 129 529 129 526 129 528 b 134 564 130 541 132 552 b 135 570 135 566 135 568 b 144 606 138 582 141 594 b 145 610 145 607 145 608 b 307 828 173 698 230 775 b 311 830 308 829 309 830 b 377 867 331 845 354 857 b 386 870 380 868 383 869 b 410 879 394 874 402 876 b 423 884 414 881 419 882 b 444 889 430 886 437 887 b 477 895 455 892 466 894 b 484 897 479 896 482 896 b 542 902 503 899 522 901 b 764 836 621 902 698 879 l 801 896 b 473 967 704 959 587 984 b 466 965 471 966 468 966 b 426 958 452 963 439 961 b 403 952 418 956 410 954 b 387 946 397 950 392 948 b 359 936 377 943 368 940 b 348 932 356 935 352 933 b 278 894 324 921 300 909 b 271 890 276 893 274 891 b 266 886 269 888 268 887 b 78 631 176 824 110 735 b 75 620 77 628 76 624 b 66 585 71 609 68 597 b 64 573 65 581 64 577 b 58 537 62 561 60 549 b 58 527 58 534 58 531 b 56 488 56 514 56 501 l 56 486 b 56 480 56 484 56 482 b 58 439 56 466 57 452 b 59 431 58 436 59 433 b 65 390 60 417 62 404 b 67 383 66 388 66 386 b 77 344 70 370 73 357 b 79 337 78 341 78 340 b 93 298 83 324 88 311 b 95 294 94 297 95 295 b 114 255 101 281 107 268 b 115 253 114 254 115 254 b 133 223 121 243 126 233 b 352 39 185 141 262 76 b 370 32 358 36 364 34 b 395 23 378 29 386 25 b 426 14 405 19 415 17 b 440 11 431 13 435 12 b 470 6 450 9 460 7 b 487 3 476 5 481 4 b 513 1 496 2 504 2 b 536 0 521 1 528 0 b 542 0 538 0 540 0 b 577 1 554 0 565 0 b 582 2 579 1 580 2 b 620 6 595 3 607 4 b 628 8 623 7 626 7 b 669 17 642 10 656 13 b 677 19 672 18 674 19 b 711 31 688 23 700 26 b 720 34 714 32 717 33 b 756 50 732 39 744 44 b 768 56 760 52 764 54 b 801 75 779 62 790 68 b 805 78 802 76 804 77 b 931 196 854 109 897 149 l 932 197 b 946 216 937 203 941 210 b 949 221 947 218 948 219 b 1027 485 1000 299 1028 391 z "},"H":{"ha":758,"x_min":0,"x_max":0,"o":"m 171 972 l 100 972 l 100 521 l 171 449 l 171 450 l 586 450 l 586 521 l 171 521 z m 100 0 l 171 0 l 171 318 l 100 389 z m 586 0 l 657 0 l 657 450 l 586 521 z m 586 972 l 586 654 l 657 583 l 657 972 z "},"h":{"ha":758,"x_min":0,"x_max":0,"o":"m 171 972 l 100 972 l 100 521 l 171 449 l 171 450 l 586 450 l 586 521 l 171 521 z m 100 0 l 171 0 l 171 318 l 100 389 z m 586 0 l 657 0 l 657 450 l 586 521 z m 586 972 l 586 654 l 657 583 l 657 972 z "},"I":{"ha":276,"x_min":0,"x_max":0,"o":"m 172 0 l 172 973 l 101 901 l 101 0 z "},"i":{"ha":276,"x_min":0,"x_max":0,"o":"m 172 0 l 172 973 l 101 901 l 101 0 z "},"Ì":{"ha":276,"x_min":0,"x_max":0,"o":"m 172 0 l 172 973 l 101 901 l 101 0 z "},"Í":{"ha":276,"x_min":0,"x_max":0,"o":"m 172 0 l 172 973 l 101 901 l 101 0 z "},"Î":{"ha":276,"x_min":0,"x_max":0,"o":"m 172 0 l 172 973 l 101 901 l 101 0 z "},"Ï":{"ha":276,"x_min":0,"x_max":0,"o":"m 172 0 l 172 973 l 101 901 l 101 0 z "},"ì":{"ha":276,"x_min":0,"x_max":0,"o":"m 172 0 l 172 973 l 101 901 l 101 0 z "},"í":{"ha":276,"x_min":0,"x_max":0,"o":"m 172 0 l 172 973 l 101 901 l 101 0 z "},"î":{"ha":276,"x_min":0,"x_max":0,"o":"m 172 0 l 172 973 l 101 901 l 101 0 z "},"ï":{"ha":276,"x_min":0,"x_max":0,"o":"m 172 0 l 172 973 l 101 901 l 101 0 z "},"J":{"ha":636,"x_min":0,"x_max":0,"o":"m 470 901 l 470 263 b 278 71 470 157 384 71 b 87 263 173 71 87 157 l 87 263 l 24 200 b 310 2 55 71 178 -14 b 541 263 442 18 541 130 l 541 973 z "},"j":{"ha":636,"x_min":0,"x_max":0,"o":"m 470 901 l 470 263 b 278 71 470 157 384 71 b 87 263 173 71 87 157 l 87 263 l 24 200 b 310 2 55 71 178 -14 b 541 263 442 18 541 130 l 541 973 z "},"K":{"ha":731,"x_min":0,"x_max":0,"o":"m 168 972 l 97 901 l 97 511 l 168 440 l 608 0 l 709 0 l 168 540 z m 97 0 l 168 0 l 168 295 l 97 366 z m 709 972 l 609 972 l 261 624 l 312 574 z "},"k":{"ha":731,"x_min":0,"x_max":0,"o":"m 168 972 l 97 901 l 97 511 l 168 440 l 608 0 l 709 0 l 168 540 z m 97 0 l 168 0 l 168 295 l 97 366 z m 709 972 l 609 972 l 261 624 l 312 574 z "},"L":{"ha":707,"x_min":0,"x_max":0,"o":"m 167 0 l 653 0 l 582 71 l 167 71 l 167 901 l 96 972 l 96 71 z "},"l":{"ha":707,"x_min":0,"x_max":0,"o":"m 167 0 l 653 0 l 582 71 l 167 71 l 167 901 l 96 972 l 96 71 z "},"M":{"ha":1178,"x_min":0,"x_max":0,"o":"m 174 0 l 174 902 l 103 973 l 103 0 z m 589 486 l 278 797 l 278 697 l 589 385 l 901 697 l 901 797 z m 1076 0 l 1076 973 l 1005 902 l 1005 0 z "},"m":{"ha":1178,"x_min":0,"x_max":0,"o":"m 174 0 l 174 902 l 103 973 l 103 0 z m 589 486 l 278 797 l 278 697 l 589 385 l 901 697 l 901 797 z m 1076 0 l 1076 973 l 1005 902 l 1005 0 z "},"N":{"ha":1013,"x_min":0,"x_max":0,"o":"m 103 1 l 174 1 l 174 903 l 103 974 z m 976 -1 l 976 99 l 278 798 l 278 697 z "},"n":{"ha":1013,"x_min":0,"x_max":0,"o":"m 103 1 l 174 1 l 174 903 l 103 974 z m 976 -1 l 976 99 l 278 798 l 278 697 z "},"Ñ":{"ha":1013,"x_min":0,"x_max":0,"o":"m 103 1 l 174 1 l 174 903 l 103 974 z m 976 -1 l 976 99 l 278 798 l 278 697 z "},"ñ":{"ha":1013,"x_min":0,"x_max":0,"o":"m 103 1 l 174 1 l 174 903 l 103 974 z m 976 -1 l 976 99 l 278 798 l 278 697 z "},"O":{"ha":1082,"x_min":0,"x_max":0,"o":"m 67 601 l 424 958 b 67 601 248 915 110 777 z m 539 973 l 460 894 b 908 681 640 929 822 842 b 835 191 994 519 964 320 b 344 118 705 61 506 32 b 132 565 183 204 96 385 l 53 486 l 53 486 b 353 37 53 289 171 112 b 883 142 535 -38 744 3 b 989 673 1022 282 1064 491 b 539 973 913 854 736 973 z "},"o":{"ha":1082,"x_min":0,"x_max":0,"o":"m 67 601 l 424 958 b 67 601 248 915 110 777 z m 539 973 l 460 894 b 908 681 640 929 822 842 b 835 191 994 519 964 320 b 344 118 705 61 506 32 b 132 565 183 204 96 385 l 53 486 l 53 486 b 353 37 53 289 171 112 b 883 142 535 -38 744 3 b 989 673 1022 282 1064 491 b 539 973 913 854 736 973 z "},"Ò":{"ha":1082,"x_min":0,"x_max":0,"o":"m 67 601 l 424 958 b 67 601 248 915 110 777 z m 539 973 l 460 894 b 908 681 640 929 822 842 b 835 191 994 519 964 320 b 344 118 705 61 506 32 b 132 565 183 204 96 385 l 53 486 l 53 486 b 353 37 53 289 171 112 b 883 142 535 -38 744 3 b 989 673 1022 282 1064 491 b 539 973 913 854 736 973 z "},"Ó":{"ha":1082,"x_min":0,"x_max":0,"o":"m 67 601 l 424 958 b 67 601 248 915 110 777 z m 539 973 l 460 894 b 908 681 640 929 822 842 b 835 191 994 519 964 320 b 344 118 705 61 506 32 b 132 565 183 204 96 385 l 53 486 l 53 486 b 353 37 53 289 171 112 b 883 142 535 -38 744 3 b 989 673 1022 282 1064 491 b 539 973 913 854 736 973 z "},"Ô":{"ha":1082,"x_min":0,"x_max":0,"o":"m 67 601 l 424 958 b 67 601 248 915 110 777 z m 539 973 l 460 894 b 908 681 640 929 822 842 b 835 191 994 519 964 320 b 344 118 705 61 506 32 b 132 565 183 204 96 385 l 53 486 l 53 486 b 353 37 53 289 171 112 b 883 142 535 -38 744 3 b 989 673 1022 282 1064 491 b 539 973 913 854 736 973 z "},"Õ":{"ha":1082,"x_min":0,"x_max":0,"o":"m 67 601 l 424 958 b 67 601 248 915 110 777 z m 539 973 l 460 894 b 908 681 640 929 822 842 b 835 191 994 519 964 320 b 344 118 705 61 506 32 b 132 565 183 204 96 385 l 53 486 l 53 486 b 353 37 53 289 171 112 b 883 142 535 -38 744 3 b 989 673 1022 282 1064 491 b 539 973 913 854 736 973 z "},"Ö":{"ha":1082,"x_min":0,"x_max":0,"o":"m 67 601 l 424 958 b 67 601 248 915 110 777 z m 539 973 l 460 894 b 908 681 640 929 822 842 b 835 191 994 519 964 320 b 344 118 705 61 506 32 b 132 565 183 204 96 385 l 53 486 l 53 486 b 353 37 53 289 171 112 b 883 142 535 -38 744 3 b 989 673 1022 282 1064 491 b 539 973 913 854 736 973 z "},"Ø":{"ha":1082,"x_min":0,"x_max":0,"o":"m 67 601 l 424 958 b 67 601 248 915 110 777 z m 539 973 l 460 894 b 908 681 640 929 822 842 b 835 191 994 519 964 320 b 344 118 705 61 506 32 b 132 565 183 204 96 385 l 53 486 l 53 486 b 353 37 53 289 171 112 b 883 142 535 -38 744 3 b 989 673 1022 282 1064 491 b 539 973 913 854 736 973 z "},"ò":{"ha":1082,"x_min":0,"x_max":0,"o":"m 67 601 l 424 958 b 67 601 248 915 110 777 z m 539 973 l 460 894 b 908 681 640 929 822 842 b 835 191 994 519 964 320 b 344 118 705 61 506 32 b 132 565 183 204 96 385 l 53 486 l 53 486 b 353 37 53 289 171 112 b 883 142 535 -38 744 3 b 989 673 1022 282 1064 491 b 539 973 913 854 736 973 z "},"ó":{"ha":1082,"x_min":0,"x_max":0,"o":"m 67 601 l 424 958 b 67 601 248 915 110 777 z m 539 973 l 460 894 b 908 681 640 929 822 842 b 835 191 994 519 964 320 b 344 118 705 61 506 32 b 132 565 183 204 96 385 l 53 486 l 53 486 b 353 37 53 289 171 112 b 883 142 535 -38 744 3 b 989 673 1022 282 1064 491 b 539 973 913 854 736 973 z "},"ô":{"ha":1082,"x_min":0,"x_max":0,"o":"m 67 601 l 424 958 b 67 601 248 915 110 777 z m 539 973 l 460 894 b 908 681 640 929 822 842 b 835 191 994 519 964 320 b 344 118 705 61 506 32 b 132 565 183 204 96 385 l 53 486 l 53 486 b 353 37 53 289 171 112 b 883 142 535 -38 744 3 b 989 673 1022 282 1064 491 b 539 973 913 854 736 973 z "},"õ":{"ha":1082,"x_min":0,"x_max":0,"o":"m 67 601 l 424 958 b 67 601 248 915 110 777 z m 539 973 l 460 894 b 908 681 640 929 822 842 b 835 191 994 519 964 320 b 344 118 705 61 506 32 b 132 565 183 204 96 385 l 53 486 l 53 486 b 353 37 53 289 171 112 b 883 142 535 -38 744 3 b 989 673 1022 282 1064 491 b 539 973 913 854 736 973 z "},"ö":{"ha":1082,"x_min":0,"x_max":0,"o":"m 67 601 l 424 958 b 67 601 248 915 110 777 z m 539 973 l 460 894 b 908 681 640 929 822 842 b 835 191 994 519 964 320 b 344 118 705 61 506 32 b 132 565 183 204 96 385 l 53 486 l 53 486 b 353 37 53 289 171 112 b 883 142 535 -38 744 3 b 989 673 1022 282 1064 491 b 539 973 913 854 736 973 z "},"ø":{"ha":1082,"x_min":0,"x_max":0,"o":"m 67 601 l 424 958 b 67 601 248 915 110 777 z m 539 973 l 460 894 b 908 681 640 929 822 842 b 835 191 994 519 964 320 b 344 118 705 61 506 32 b 132 565 183 204 96 385 l 53 486 l 53 486 b 353 37 53 289 171 112 b 883 142 535 -38 744 3 b 989 673 1022 282 1064 491 b 539 973 913 854 736 973 z "},"P":{"ha":881,"x_min":0,"x_max":0,"o":"m 44 0 l 116 0 l 116 411 l 44 340 z m 658 955 l 598 894 b 769 701 698 886 773 800 b 585 519 766 601 685 521 b 582 519 584 519 583 519 l 223 519 l 152 449 l 578 449 b 585 448 580 449 582 448 b 838 670 712 450 820 544 b 658 955 856 796 780 917 z "},"p":{"ha":881,"x_min":0,"x_max":0,"o":"m 44 0 l 116 0 l 116 411 l 44 340 z m 658 955 l 598 894 b 769 701 698 886 773 800 b 585 519 766 601 685 521 b 582 519 584 519 583 519 l 223 519 l 152 449 l 578 449 b 585 448 580 449 582 448 b 838 670 712 450 820 544 b 658 955 856 796 780 917 z "},"Q":{"ha":1083,"x_min":0,"x_max":0,"o":"m 843 202 l 843 202 b 316 136 706 56 485 29 b 152 641 147 243 79 455 b 617 897 226 827 421 934 b 956 488 814 860 956 688 l 1027 488 b 633 964 1027 721 861 920 b 91 668 404 1008 177 884 b 278 79 4 452 82 205 b 892 150 473 -47 730 -18 l 1007 35 l 1007 135 l 843 299 z "},"q":{"ha":1083,"x_min":0,"x_max":0,"o":"m 843 202 l 843 202 b 316 136 706 56 485 29 b 152 641 147 243 79 455 b 617 897 226 827 421 934 b 956 488 814 860 956 688 l 1027 488 b 633 964 1027 721 861 920 b 91 668 404 1008 177 884 b 278 79 4 452 82 205 b 892 150 473 -47 730 -18 l 1007 35 l 1007 135 l 843 299 z "},"R":{"ha":892,"x_min":0,"x_max":0,"o":"m 44 1 l 116 1 l 116 412 l 44 341 z m 585 449 b 838 670 712 450 820 544 b 658 955 856 796 780 917 l 598 894 b 770 701 698 886 773 801 b 585 520 766 601 685 521 b 582 520 584 520 583 520 l 223 520 l 152 449 l 578 449 b 585 449 580 449 583 449 z m 429 412 l 329 412 l 740 0 l 841 0 z "},"r":{"ha":892,"x_min":0,"x_max":0,"o":"m 44 1 l 116 1 l 116 412 l 44 341 z m 585 449 b 838 670 712 450 820 544 b 658 955 856 796 780 917 l 598 894 b 770 701 698 886 773 801 b 585 520 766 601 685 521 b 582 520 584 520 583 520 l 223 520 l 152 449 l 578 449 b 585 449 580 449 583 449 z m 429 412 l 329 412 l 740 0 l 841 0 z "},"S":{"ha":678,"x_min":0,"x_max":0,"o":"m 449 518 l 382 451 l 409 451 b 551 259 507 451 551 351 b 513 126 552 212 539 166 b 409 71 490 91 451 70 l 125 71 l 54 0 l 409 0 b 571 85 474 -1 535 31 b 559 451 643 198 638 343 b 449 518 531 485 492 509 z m 267 451 l 338 522 l 267 522 b 126 713 170 522 126 621 b 163 846 124 761 138 807 b 267 901 186 881 226 902 l 551 901 l 622 972 l 267 972 b 105 887 202 973 141 941 b 118 522 33 775 38 629 b 267 451 154 476 209 450 z "},"s":{"ha":678,"x_min":0,"x_max":0,"o":"m 449 518 l 382 451 l 409 451 b 551 259 507 451 551 351 b 513 126 552 212 539 166 b 409 71 490 91 451 70 l 125 71 l 54 0 l 409 0 b 571 85 474 -1 535 31 b 559 451 643 198 638 343 b 449 518 531 485 492 509 z m 267 451 l 338 522 l 267 522 b 126 713 170 522 126 621 b 163 846 124 761 138 807 b 267 901 186 881 226 902 l 551 901 l 622 972 l 267 972 b 105 887 202 973 141 941 b 118 522 33 775 38 629 b 267 451 154 476 209 450 z "},"T":{"ha":949,"x_min":0,"x_max":0,"o":"m 521 970 l 35 970 l 106 899 l 521 899 l 521 69 l 592 -2 l 592 899 z "},"t":{"ha":949,"x_min":0,"x_max":0,"o":"m 521 970 l 35 970 l 106 899 l 521 899 l 521 69 l 592 -2 l 592 899 z "},"U":{"ha":1007,"x_min":0,"x_max":0,"o":"m 865 790 l 865 427 b 850 322 865 391 860 356 l 905 266 b 937 427 926 317 937 372 l 937 719 z m 510 71 b 154 427 314 72 155 231 l 154 901 l 83 972 l 83 427 b 510 0 84 192 274 1 b 865 176 658 0 789 61 b 871 185 867 179 869 182 l 819 236 b 510 71 758 129 642 71 z "},"u":{"ha":1007,"x_min":0,"x_max":0,"o":"m 865 790 l 865 427 b 850 322 865 391 860 356 l 905 266 b 937 427 926 317 937 372 l 937 719 z m 510 71 b 154 427 314 72 155 231 l 154 901 l 83 972 l 83 427 b 510 0 84 192 274 1 b 865 176 658 0 789 61 b 871 185 867 179 869 182 l 819 236 b 510 71 758 129 642 71 z "},"Ù":{"ha":1007,"x_min":0,"x_max":0,"o":"m 865 790 l 865 427 b 850 322 865 391 860 356 l 905 266 b 937 427 926 317 937 372 l 937 719 z m 510 71 b 154 427 314 72 155 231 l 154 901 l 83 972 l 83 427 b 510 0 84 192 274 1 b 865 176 658 0 789 61 b 871 185 867 179 869 182 l 819 236 b 510 71 758 129 642 71 z "},"Ú":{"ha":1007,"x_min":0,"x_max":0,"o":"m 865 790 l 865 427 b 850 322 865 391 860 356 l 905 266 b 937 427 926 317 937 372 l 937 719 z m 510 71 b 154 427 314 72 155 231 l 154 901 l 83 972 l 83 427 b 510 0 84 192 274 1 b 865 176 658 0 789 61 b 871 185 867 179 869 182 l 819 236 b 510 71 758 129 642 71 z "},"Û":{"ha":1007,"x_min":0,"x_max":0,"o":"m 865 790 l 865 427 b 850 322 865 391 860 356 l 905 266 b 937 427 926 317 937 372 l 937 719 z m 510 71 b 154 427 314 72 155 231 l 154 901 l 83 972 l 83 427 b 510 0 84 192 274 1 b 865 176 658 0 789 61 b 871 185 867 179 869 182 l 819 236 b 510 71 758 129 642 71 z "},"Ü":{"ha":1007,"x_min":0,"x_max":0,"o":"m 865 790 l 865 427 b 850 322 865 391 860 356 l 905 266 b 937 427 926 317 937 372 l 937 719 z m 510 71 b 154 427 314 72 155 231 l 154 901 l 83 972 l 83 427 b 510 0 84 192 274 1 b 865 176 658 0 789 61 b 871 185 867 179 869 182 l 819 236 b 510 71 758 129 642 71 z "},"ù":{"ha":1007,"x_min":0,"x_max":0,"o":"m 865 790 l 865 427 b 850 322 865 391 860 356 l 905 266 b 937 427 926 317 937 372 l 937 719 z m 510 71 b 154 427 314 72 155 231 l 154 901 l 83 972 l 83 427 b 510 0 84 192 274 1 b 865 176 658 0 789 61 b 871 185 867 179 869 182 l 819 236 b 510 71 758 129 642 71 z "},"ú":{"ha":1007,"x_min":0,"x_max":0,"o":"m 865 790 l 865 427 b 850 322 865 391 860 356 l 905 266 b 937 427 926 317 937 372 l 937 719 z m 510 71 b 154 427 314 72 155 231 l 154 901 l 83 972 l 83 427 b 510 0 84 192 274 1 b 865 176 658 0 789 61 b 871 185 867 179 869 182 l 819 236 b 510 71 758 129 642 71 z "},"û":{"ha":1007,"x_min":0,"x_max":0,"o":"m 865 790 l 865 427 b 850 322 865 391 860 356 l 905 266 b 937 427 926 317 937 372 l 937 719 z m 510 71 b 154 427 314 72 155 231 l 154 901 l 83 972 l 83 427 b 510 0 84 192 274 1 b 865 176 658 0 789 61 b 871 185 867 179 869 182 l 819 236 b 510 71 758 129 642 71 z "},"ü":{"ha":1007,"x_min":0,"x_max":0,"o":"m 865 790 l 865 427 b 850 322 865 391 860 356 l 905 266 b 937 427 926 317 937 372 l 937 719 z m 510 71 b 154 427 314 72 155 231 l 154 901 l 83 972 l 83 427 b 510 0 84 192 274 1 b 865 176 658 0 789 61 b 871 185 867 179 869 182 l 819 236 b 510 71 758 129 642 71 z "},"V":{"ha":933,"x_min":0,"x_max":0,"o":"m 840 972 l 444 162 l 285 487 l 246 406 l 444 0 l 919 973 z "},"v":{"ha":933,"x_min":0,"x_max":0,"o":"m 840 972 l 444 162 l 285 487 l 246 406 l 444 0 l 919 973 z "},"W":{"ha":1500,"x_min":0,"x_max":0,"o":"m 709 485 l 869 162 l 908 242 l 748 565 z m 1345 973 l 909 80 l 949 0 l 1424 972 z m 551 162 l 156 973 l 76 973 l 551 0 l 631 162 l 591 242 z "},"w":{"ha":1500,"x_min":0,"x_max":0,"o":"m 709 485 l 869 162 l 908 242 l 748 565 z m 1345 973 l 909 80 l 949 0 l 1424 972 z m 551 162 l 156 973 l 76 973 l 551 0 l 631 162 l 591 242 z "},"X":{"ha":958,"x_min":0,"x_max":0,"o":"m 914 868 l 914 969 l 516 571 l 566 521 z m 516 396 l 914 -2 l 914 98 l 566 446 z m 43 98 l 43 -2 l 441 396 l 391 446 z m 43 868 l 391 521 l 441 571 l 43 969 z "},"x":{"ha":958,"x_min":0,"x_max":0,"o":"m 914 868 l 914 969 l 516 571 l 566 521 z m 516 396 l 914 -2 l 914 98 l 566 446 z m 43 98 l 43 -2 l 441 396 l 391 446 z m 43 868 l 391 521 l 441 571 l 43 969 z "},"Y":{"ha":721,"x_min":0,"x_max":0,"o":"m 293 485 l 335 561 l 135 971 l 56 971 l 293 485 z m 593 971 l 56 -2 l 135 -2 l 672 971 z "},"y":{"ha":721,"x_min":0,"x_max":0,"o":"m 293 485 l 335 561 l 135 971 l 56 971 l 293 485 z m 593 971 l 56 -2 l 135 -2 l 672 971 z "},"Ý":{"ha":721,"x_min":0,"x_max":0,"o":"m 293 485 l 335 561 l 135 971 l 56 971 l 293 485 z m 593 971 l 56 -2 l 135 -2 l 672 971 z "},"ý":{"ha":721,"x_min":0,"x_max":0,"o":"m 293 485 l 335 561 l 135 971 l 56 971 l 293 485 z m 593 971 l 56 -2 l 135 -2 l 672 971 z "},"ÿ":{"ha":721,"x_min":0,"x_max":0,"o":"m 293 485 l 335 561 l 135 971 l 56 971 l 293 485 z m 593 971 l 56 -2 l 135 -2 l 672 971 z "},"Ÿ":{"ha":721,"x_min":0,"x_max":0,"o":"m 293 485 l 335 561 l 135 971 l 56 971 l 293 485 z m 593 971 l 56 -2 l 135 -2 l 672 971 z "},"Z":{"ha":822,"x_min":0,"x_max":0,"o":"m 716 974 l 106 974 l 35 903 l 654 903 z m 177 73 l 106 2 l 726 2 l 787 73 z m 786 974 l 35 103 l 35 2 l 97 75 l 786 873 z "},"z":{"ha":822,"x_min":0,"x_max":0,"o":"m 716 974 l 106 974 l 35 903 l 654 903 z m 177 73 l 106 2 l 726 2 l 787 73 z m 786 974 l 35 103 l 35 2 l 97 75 l 786 873 z "}," ":{"ha":440,"x_min":0,"x_max":0,"o":""},"­":{"ha":0,"x_min":0,"x_max":0,"o":""}}}
